<?xml version="1.0" encoding="UTF-8" standalone="no"?>
<svg
   xmlns:dc="http://purl.org/dc/elements/1.1/"
   xmlns:cc="http://creativecommons.org/ns#"
   xmlns:rdf="http://www.w3.org/1999/02/22-rdf-syntax-ns#"
   xmlns:svg="http://www.w3.org/2000/svg"
   xmlns="http://www.w3.org/2000/svg"
   xmlns:sodipodi="http://sodipodi.sourceforge.net/DTD/sodipodi-0.dtd"
   xmlns:inkscape="http://www.inkscape.org/namespaces/inkscape"
   width="210mm"
   height="297mm"
   viewBox="0 0 210 297"
   version="1.1"
   id="svg8"
   inkscape:version="1.0 (4035a4fb49, 2020-05-01)"
   sodipodi:docname="icon.svg">
  <defs
     id="defs2">
    <pattern
       y="0"
       x="0"
       height="6"
       width="6"
       patternUnits="userSpaceOnUse"
       id="EMFhbasepattern" />
    <pattern
       y="0"
       x="0"
       height="6"
       width="6"
       patternUnits="userSpaceOnUse"
       id="EMFhbasepattern-0" />
    <pattern
       y="0"
       x="0"
       height="6"
       width="6"
       patternUnits="userSpaceOnUse"
       id="EMFhbasepattern-05" />
    <pattern
       y="0"
       x="0"
       height="6"
       width="6"
       patternUnits="userSpaceOnUse"
       id="EMFhbasepattern-6" />
    <pattern
       y="0"
       x="0"
       height="6"
       width="6"
       patternUnits="userSpaceOnUse"
       id="EMFhbasepattern-5" />
    <pattern
       y="0"
       x="0"
       height="6"
       width="6"
       patternUnits="userSpaceOnUse"
       id="EMFhbasepattern-3" />
    <pattern
       y="0"
       x="0"
       height="6"
       width="6"
       patternUnits="userSpaceOnUse"
       id="EMFhbasepattern-4" />
    <pattern
       y="0"
       x="0"
       height="6"
       width="6"
       patternUnits="userSpaceOnUse"
       id="EMFhbasepattern-7" />
    <pattern
       y="0"
       x="0"
       height="6"
       width="6"
       patternUnits="userSpaceOnUse"
       id="EMFhbasepattern-70" />
  </defs>
  <sodipodi:namedview
     id="base"
     pagecolor="#ffffff"
     bordercolor="#666666"
     borderopacity="1.0"
     inkscape:pageopacity="0.0"
     inkscape:pageshadow="2"
     inkscape:zoom="1.0052778"
     inkscape:cx="338.04898"
     inkscape:cy="163.35926"
     inkscape:document-units="mm"
     inkscape:current-layer="layer1"
     inkscape:document-rotation="0"
     showgrid="false"
     inkscape:window-width="1084"
     inkscape:window-height="1041"
     inkscape:window-x="78"
     inkscape:window-y="0"
     inkscape:window-maximized="0" />
  <metadata
     id="metadata5">
    <rdf:RDF>
      <cc:Work
         rdf:about="">
        <dc:format>image/svg+xml</dc:format>
        <dc:type
           rdf:resource="http://purl.org/dc/dcmitype/StillImage" />
        <dc:title />
      </cc:Work>
    </rdf:RDF>
  </metadata>
  <g
     inkscape:label="レイヤー 1"
     inkscape:groupmode="layer"
     id="layer1">
    <g
       inkscape:export-ydpi="36"
       inkscape:export-xdpi="36"
       id="icondesign"
       transform="translate(-42.409242,-138.31864)">
      <g
         transform="translate(5.9554064,69.603809)"
         id="g1067">
        <path
           id="path1035"
           d="m 80.412688,69.038777 h 9.029849 v 7.447316 h 6.728124 v 5.1312 h 7.377329 v 10.768822 l -7.377329,7.447309 v 3.589606 25.25385 H 44.470336 V 76.486093 h 23.371381 5.193639 z"
           style="fill:#ffc59e;fill-opacity:1;fill-rule:evenodd;stroke:none;stroke-width:0.195737" />
        <path
           id="path1037"
           d="m 59.461066,95.454403 25.06817,-25.305976 c 0.671335,-0.685153 1.600881,-1.10965 2.633709,-1.10965 h 5.31905 v 0.0075 c 0.05904,0 0.125418,0 0.184439,0.0074 2.995189,0.156394 5.555126,1.154335 7.510116,3.127873 1.74843,1.772461 2.90667,4.222628 3.3198,7.432421 0.0369,0.193631 0.0516,0.394708 0.0516,0.595785 v 5.369515 c 0,0.953257 -0.36149,1.906513 -1.08447,2.628903 L 77.39535,113.51416 c -0.663959,0.68514 -1.593505,1.10965 -2.626327,1.10965 H 62.072642 c -2.03614,0 -3.688659,-1.66076 -3.688659,-3.72366 V 98.083312 c 0,-0.953257 0.361486,-1.90652 1.077083,-2.628909 z"
           style="fill:#000000;fill-opacity:1;fill-rule:nonzero;stroke:none;stroke-width:0.195737" />
        <path
           id="path1039"
           d="m 48.158999,69.038777 h 32.253683 l -7.37733,7.447314 H 48.158999 c -1.010694,0 -1.93286,0.41705 -2.604198,1.094755 -0.671336,0.677705 -1.084467,1.60862 -1.084467,2.628902 v 44.743472 c 0,1.02028 0.413131,1.95119 1.084467,2.62145 0.671338,0.6777 1.593504,1.10221 2.604198,1.10221 h 44.322989 c 1.010694,0 1.932864,-0.42451 2.596824,-1.10221 0.671335,-0.67026 1.091842,-1.60117 1.091842,-2.62145 V 99.833417 l 7.377336,-7.447302 v 32.567105 c 0,3.07574 -1.24677,5.86847 -3.2534,7.88669 -1.999265,2.02568 -4.765761,3.28428 -7.812602,3.28428 H 48.158999 c -3.046837,0 -5.813336,-1.2586 -7.81997,-3.28428 -2.006633,-2.01822 -3.246024,-4.81095 -3.246024,-7.88669 V 80.209748 c 0,-3.07574 1.239391,-5.868484 3.246024,-7.894153 2.006634,-2.02567 4.773133,-3.276818 7.81997,-3.276818 z"
           style="fill:#ff6600;fill-opacity:1;fill-rule:nonzero;stroke:none;stroke-width:0.195737" />
      </g>
      <rect
         y="138.31863"
         x="42.409241"
         height="67.73333"
         width="67.73333"
         id="rect1058"
         style="fill:#ffffff;fill-opacity:0;stroke:#666666;stroke-width:0;stroke-miterlimit:4;stroke-dasharray:none" />
    </g>
  </g>
</svg>
